<svg width="620px" height="600px" xmlns="http://www.w3.org/2000/svg" viewBox="0 0 620 600" preserveAspectRatio="xMidYMid">
 <g>
  <path fill="#fff" stroke="#000" stroke-width="10px" id="svg_115" d="m0,62.49378c165.64032,16.86655 295.84445,77.26225 390.61237,181.18711c3.699,4.05641 13.97051,15.52624 21.81956,12.68561c7.84905,-2.84062 17.42788,-20.61885 21.61759,-26.80865c6.57916,-9.71991 26.90383,-44.20699 71.14392,-58.41012c44.2401,-14.20313 100.29782,1.60223 102.33328,2.30168c3.82563,1.31459 7.68706,3.03836 5.48273,6.11736c-2.20431,3.07899 -20.93341,10.4897 -33.65804,34.69219c-13.61314,25.89248 -21.61408,75.98609 -23.57718,87.02608c-7.73186,45.46476 -26.27276,87.62084 -53.08846,123.44786c-47.17981,63.03446 -119.97442,106.47716 -204.58158,113.87824c-46.25297,4.04603 -90.89998,-3.12856 -131.25355,-19.26856c48.90022,-4.77339 108.08484,-27.86377 155.62666,-83.14773c59.98551,-69.75409 -5.6611,-33.5361 -62.03154,-42.76814c-39.4943,-6.46814 -71.63976,-26.65576 -125.59143,-94.93076c17.30731,-4.81246 51.42583,-10.6832 78.94672,-11.85367c-50.90428,-11.62721 -118.43578,-43.65241 -148.31475,-92.98986c24.01234,-8.28517 55.60948,-5.27681 80.85445,-4.18665c-96.15217,-57.5587 -137.62038,-88.56531 -146.34076,-126.97199zm229.76313,-62.49378c5.68239,2.75517 91.34849,39.75257 132.72031,95.16097c57.79754,77.40706 59.93821,151.97349 44.2401,134.92974c-36.88851,-40.05064 -70.80174,-65.69679 -112.74091,-94.45082c-32.10975,-22.01486 -53.56888,-84.76072 -64.21949,-135.63989zm297.57704,188.58911c-8.13497,0.71173 -14.15271,7.88337 -13.441,16.01834c0.71173,8.13497 7.88337,14.15271 16.01834,13.441c8.13497,-0.71173 14.15271,-7.88337 13.441,-16.01834c-0.71173,-8.13497 -7.88337,-14.15271 -16.01834,-13.441z"/>
 </g>
</svg>